<svg width="30" height="30" viewBox="0 0 30 30" fill="none" xmlns="http://www.w3.org/2000/svg">
<rect width="30" height="30" rx="2" fill="#1E40AF"/>
<path d="M10.6163 13.3703L10.5269 13.4151L10.527 13.4153L10.5274 13.4161L10.5289 13.419L10.5347 13.4306L10.5575 13.476L10.6446 13.6493C10.7201 13.7992 10.8289 14.0145 10.9621 14.2765C11.2286 14.8006 11.5928 15.5114 11.984 16.2586C12.7642 17.7487 13.658 19.3958 14.0943 19.9838C14.5531 20.6023 15.1551 20.6796 15.6323 20.603C15.8692 20.565 16.0769 20.4892 16.2247 20.4234C16.2988 20.3904 16.3584 20.3597 16.3998 20.337C16.4013 20.3362 16.4027 20.3354 16.4042 20.3346L20.8881 23.8593C20.2089 24.2783 19.4405 24.5844 18.8275 24.7886C18.5035 24.8966 18.2241 24.9758 18.0258 25.0279C17.9267 25.054 17.8479 25.0732 17.794 25.086C17.7671 25.0924 17.7464 25.0971 17.7325 25.1002L17.7169 25.1037L17.7155 25.104C15.8428 25.3562 14.0667 24.2266 12.5804 22.7605C11.143 21.3426 9.99896 19.6324 9.32806 18.6294C9.30646 18.5971 9.28535 18.5655 9.26474 18.5348C7.96077 16.5866 7.15772 13.0715 7.10054 9.07694C7.0865 8.09616 7.3464 7.36343 7.73928 6.8139C8.13299 6.26322 8.66464 5.89047 9.20249 5.63821C9.74049 5.38589 10.2816 5.25564 10.6891 5.18862C10.8926 5.15515 11.0621 5.13755 11.1805 5.12833C11.2127 5.12581 11.2412 5.12392 11.2655 5.1225L11.4327 10.8135C11.0341 11.0062 10.7707 11.2578 10.6036 11.532C10.4286 11.819 10.3627 12.1247 10.3514 12.402C10.3401 12.6789 10.3833 12.9299 10.4288 13.111C10.4516 13.2018 10.4751 13.2756 10.4931 13.3271C10.5021 13.3528 10.5098 13.3731 10.5152 13.387L10.5217 13.4033L10.5236 13.4078L10.5241 13.4091L10.5243 13.4095L10.5244 13.4096C10.5244 13.4097 10.5244 13.4097 10.6156 13.3707L10.5243 13.4098L10.5269 13.4151L10.6163 13.3703Z" fill="white" stroke="white" stroke-width="0.2"/>
<path d="M11.9816 5.25195L11.9799 5.1024C12.0144 5.0995 12.0617 5.09846 12.1212 5.10372C12.2712 5.11696 12.5017 5.17042 12.8061 5.33816C13.1117 5.50652 13.2561 5.65628 13.324 5.75607C13.358 5.80591 13.3732 5.84386 13.3801 5.86649C13.3835 5.87787 13.3849 5.88562 13.3855 5.88934C13.3856 5.89024 13.3857 5.89091 13.3857 5.89135L13.4427 9.85735L13.4338 9.86901C13.4145 9.89374 13.3864 9.92924 13.3512 9.9719C13.2807 10.0574 13.1824 10.1709 13.0705 10.2839C12.9693 10.3861 12.7397 10.5247 12.5177 10.6089C12.4073 10.6508 12.3076 10.6757 12.2334 10.6787C12.1637 10.6816 12.1456 10.6654 12.1414 10.6598C12.1409 10.6578 12.1397 10.6535 12.1382 10.646C12.1354 10.6322 12.1324 10.613 12.1292 10.5878C12.1228 10.5378 12.1165 10.4694 12.1103 10.3844C12.0979 10.2148 12.0863 9.98413 12.0756 9.7126C12.0542 9.16981 12.0363 8.4673 12.0219 7.77145C12.0076 7.07573 11.9968 6.3872 11.9897 5.87256C11.9861 5.61525 11.9834 5.40143 11.9816 5.25195Z" fill="white" stroke="white" stroke-width="0.2"/>
<path d="M21.6233 21.6215L21.6281 21.6253L21.6297 21.6267L21.6403 21.6366C21.6497 21.6457 21.6635 21.6593 21.6798 21.6771C21.7127 21.7128 21.7552 21.7641 21.7941 21.8264C21.8733 21.953 21.9295 22.1113 21.8831 22.2754C21.8262 22.4765 21.7263 22.794 21.6402 23.0624C21.5972 23.1963 21.5578 23.3176 21.5292 23.4054L21.5273 23.4111L16.9813 19.8034L18.1078 19.2089C18.1136 19.2084 18.1216 19.2078 18.1315 19.2076C18.1594 19.2069 18.2032 19.2083 18.2611 19.218C18.3767 19.2375 18.5507 19.2905 18.7694 19.4286L18.8228 19.344L18.7693 19.4285C18.9936 19.5705 19.7058 20.1174 20.3683 20.6342C20.6981 20.8915 21.0136 21.1397 21.2467 21.3236C21.3632 21.4155 21.4591 21.4914 21.5259 21.5443L21.6031 21.6055L21.6233 21.6215Z" fill="white" stroke="white" stroke-width="0.2"/>
</svg>
    