<svg xmlns="http://www.w3.org/2000/svg" width="116" height="25" viewBox="0 0 116 25" fill="none">
<rect width="25" height="25" rx="2" fill="white" />
<path d="M8.84687 11.1421L8.75746 11.1869L8.75754 11.1871L8.75785 11.1877L8.75908 11.1902L8.76393 11.1999L8.78291 11.2377L8.85555 11.3822C8.91846 11.507 9.00912 11.6865 9.12016 11.9049C9.34221 12.3416 9.64579 12.934 9.97185 13.5567C10.6217 14.798 11.3672 16.172 11.7318 16.6633C12.1189 17.1851 12.6276 17.2503 13.0294 17.1858C13.2288 17.1538 13.4032 17.0901 13.5273 17.0349C13.586 17.0088 13.6339 16.9843 13.6684 16.9656L17.3776 19.8813C16.8181 20.2231 16.1884 20.4736 15.6842 20.6416C15.4147 20.7314 15.1821 20.7973 15.0172 20.8407C14.9347 20.8623 14.8692 20.8784 14.8244 20.889C14.8021 20.8943 14.7849 20.8982 14.7734 20.9008L14.7604 20.9037L14.7599 20.9038C13.2077 21.1125 11.7329 20.1762 10.4953 18.9554C9.29866 17.775 8.34612 16.3511 7.78699 15.5152L8.84687 11.1421ZM8.84687 11.1421L8.75743 11.1869L8.7548 11.1816L8.84607 11.1425C8.75496 11.1816 8.75494 11.1815 8.75492 11.1815L8.75486 11.1813L8.7547 11.1809L8.75422 11.1798L8.75262 11.1759L8.7471 11.1621C8.74247 11.1503 8.73604 11.1333 8.72847 11.1116C8.71333 11.0683 8.69355 11.0063 8.6744 10.9301C8.63623 10.7782 8.59997 10.5674 8.60944 10.3345C8.61891 10.1013 8.67438 9.84363 8.82198 9.60152C8.9617 9.37235 9.18078 9.16245 9.51016 9.00121L9.37166 4.28664C9.35563 4.28766 9.33779 4.2889 9.31826 4.29043C9.22006 4.29808 9.07925 4.31269 8.9102 4.3405C8.57158 4.39619 8.12226 4.50438 7.67574 4.71381C7.22936 4.92316 6.78888 5.23217 6.46288 5.68815C6.1377 6.14297 5.92205 6.75004 5.9337 7.56408C5.98133 10.8917 6.6504 13.817 7.73438 15.4366L8.84687 11.1421Z"
fill="#1E40AF" stroke="#1E40AF" stroke-width="0.2" />
<path d="M10.9511 8.62866L10.8801 8.5583C10.7981 8.64111 10.6091 8.75557 10.4254 8.82526C10.334 8.8599 10.2529 8.87997 10.1936 8.88238C10.1641 8.88357 10.1461 8.8801 10.1367 8.87649C10.1349 8.87579 10.1336 8.87516 10.1327 8.87468C10.1323 8.87308 10.1319 8.87102 10.1313 8.86844C10.1291 8.8575 10.1266 8.84191 10.124 8.82118C10.1188 8.77989 10.1135 8.72321 10.1084 8.65254C10.098 8.51149 10.0884 8.31947 10.0795 8.09326C10.0616 7.64109 10.0467 7.05579 10.0348 6.47595C10.0228 5.89623 10.0139 5.32249 10.0079 4.89365C10.0049 4.67924 10.0027 4.50107 10.0012 4.37651L9.9999 4.26763C10.0259 4.26621 10.0592 4.26623 10.0994 4.26978C10.2218 4.2806 10.4117 4.32438 10.6636 4.46314C10.9165 4.60253 11.0346 4.72572 11.0894 4.80619C11.1168 4.84637 11.1288 4.87646 11.134 4.89366C11.1366 4.90232 11.1376 4.90796 11.1379 4.91024C11.1379 4.91039 11.1379 4.91053 11.138 4.91066L11.1854 8.20898L11.1815 8.21402C11.1656 8.23452 11.1422 8.26398 11.113 8.29939C11.0545 8.37037 10.9729 8.46457 10.8801 8.5583L10.9511 8.62866ZM10.9511 8.62866C11.1422 8.43562 11.2859 8.24217 11.2859 8.24217L10.0421 8.91884C10.138 9.1123 10.7598 8.8219 10.9511 8.62866Z"
fill="#1E40AF" stroke="#1E40AF" stroke-width="0.2" />
<path d="M18.0091 18.0312L18.0127 18.034L18.0136 18.0348L18.0221 18.0428C18.0297 18.0501 18.0409 18.0613 18.0543 18.0758C18.0812 18.105 18.1159 18.1469 18.1477 18.1977C18.2125 18.3014 18.2568 18.4283 18.2199 18.5586C18.1726 18.7258 18.0894 18.9901 18.0177 19.2138C17.9847 19.3165 17.9543 19.4102 17.9311 19.4815L14.1815 16.5059L15.0946 16.024C15.0987 16.0237 15.1039 16.0234 15.1101 16.0232C15.1323 16.0226 15.1677 16.0238 15.2148 16.0317C15.3089 16.0476 15.4519 16.0909 15.6323 16.2048L15.6857 16.1203L15.6322 16.2048C15.8182 16.3225 16.4109 16.7776 16.9634 17.2086C17.2382 17.4229 17.5011 17.6297 17.6953 17.783C17.7924 17.8596 17.8723 17.9228 17.9279 17.9669L17.9923 18.0178L18.0091 18.0312Z"
fill="#1E40AF" stroke="#1E40AF" stroke-width="0.2" />
<path d="M42.7045 22H36.517V4.54545H42.7557C44.5114 4.54545 46.0227 4.89489 47.2898 5.59375C48.5568 6.28693 49.5313 7.28409 50.2131 8.58523C50.9006 9.88636 51.2443 11.4432 51.2443 13.2557C51.2443 15.0739 50.9006 16.6364 50.2131 17.9432C49.5313 19.25 48.5511 20.2528 47.2727 20.9517C46 21.6506 44.4773 22 42.7045 22ZM40.2074 18.8381H42.5511C43.642 18.8381 44.5597 18.6449 45.304 18.2585C46.054 17.8665 46.6165 17.2614 46.9915 16.4432C47.3722 15.6193 47.5625 14.5568 47.5625 13.2557C47.5625 11.9659 47.3722 10.9119 46.9915 10.0938C46.6165 9.27557 46.0568 8.6733 45.3125 8.28693C44.5682 7.90057 43.6506 7.70739 42.5597 7.70739H40.2074V18.8381ZM53.9098 22V8.90909H57.5405V22H53.9098ZM55.7337 7.22159C55.1939 7.22159 54.7308 7.04261 54.3445 6.68466C53.9638 6.32102 53.7734 5.88636 53.7734 5.38068C53.7734 4.88068 53.9638 4.4517 54.3445 4.09375C54.7308 3.73011 55.1939 3.54829 55.7337 3.54829C56.2734 3.54829 56.7337 3.73011 57.1143 4.09375C57.5007 4.4517 57.6939 4.88068 57.6939 5.38068C57.6939 5.88636 57.5007 6.32102 57.1143 6.68466C56.7337 7.04261 56.2734 7.22159 55.7337 7.22159ZM64.1818 22.2472C63.3466 22.2472 62.6023 22.1023 61.9489 21.8125C61.2955 21.517 60.7784 21.0824 60.3977 20.5085C60.0227 19.929 59.8352 19.2074 59.8352 18.3438C59.8352 17.6165 59.9688 17.0057 60.2358 16.5114C60.5028 16.017 60.8665 15.6193 61.3267 15.3182C61.7869 15.017 62.3097 14.7898 62.8949 14.6364C63.4858 14.483 64.1051 14.375 64.7528 14.3125C65.5142 14.233 66.1278 14.1591 66.5938 14.0909C67.0597 14.017 67.3977 13.9091 67.608 13.767C67.8182 13.625 67.9233 13.4148 67.9233 13.1364V13.0852C67.9233 12.5455 67.7528 12.1278 67.4119 11.8324C67.0767 11.5369 66.5994 11.3892 65.9801 11.3892C65.3267 11.3892 64.8068 11.5341 64.4205 11.8239C64.0341 12.108 63.7784 12.4659 63.6534 12.8977L60.2955 12.625C60.4659 11.8295 60.8011 11.142 61.3011 10.5625C61.8011 9.97727 62.446 9.52841 63.2358 9.21591C64.0313 8.89773 64.9517 8.73864 65.9972 8.73864C66.7244 8.73864 67.4205 8.82386 68.0852 8.99432C68.7557 9.16477 69.3494 9.42898 69.8665 9.78693C70.3892 10.1449 70.8011 10.6051 71.1023 11.1676C71.4034 11.7244 71.554 12.392 71.554 13.1705V22H68.1108V20.1847H68.0085C67.7983 20.5938 67.517 20.9545 67.1648 21.267C66.8125 21.5739 66.3892 21.8153 65.8949 21.9915C65.4006 22.1619 64.8295 22.2472 64.1818 22.2472ZM65.2216 19.7415C65.7557 19.7415 66.2273 19.6364 66.6364 19.4261C67.0455 19.2102 67.3665 18.9205 67.5994 18.5568C67.8324 18.1932 67.9489 17.7812 67.9489 17.321V15.9318C67.8352 16.0057 67.679 16.0739 67.4801 16.1364C67.2869 16.1932 67.0682 16.2472 66.8239 16.2983C66.5795 16.3437 66.3352 16.3864 66.0909 16.4261C65.8466 16.4602 65.625 16.4915 65.4261 16.5199C65 16.5824 64.6278 16.6818 64.3097 16.8182C63.9915 16.9545 63.7443 17.1392 63.5682 17.3722C63.392 17.5994 63.304 17.8835 63.304 18.2244C63.304 18.7188 63.483 19.0966 63.8409 19.358C64.2045 19.6136 64.6648 19.7415 65.2216 19.7415ZM78.0014 4.54545V22H74.3707V4.54545H78.0014ZM80.978 4.54545H85.5291L90.3359 16.2727H90.5405L95.3473 4.54545H99.8984V22H96.3189V10.6392H96.174L91.657 21.9148H89.2195L84.7024 10.5966H84.5575V22H80.978V4.54545ZM108.837 22.2557C107.49 22.2557 106.331 21.983 105.359 21.4375C104.393 20.8864 103.649 20.108 103.126 19.1023C102.604 18.0909 102.342 16.8949 102.342 15.5142C102.342 14.1676 102.604 12.9858 103.126 11.9688C103.649 10.9517 104.385 10.1591 105.334 9.59091C106.288 9.02273 107.408 8.73864 108.692 8.73864C109.555 8.73864 110.359 8.87784 111.104 9.15625C111.854 9.42898 112.507 9.84091 113.064 10.392C113.626 10.9432 114.064 11.6364 114.376 12.4716C114.689 13.3011 114.845 14.2727 114.845 15.3864V16.3835H103.791V14.1335H111.428C111.428 13.6108 111.314 13.1477 111.087 12.7443C110.859 12.3409 110.544 12.0256 110.141 11.7983C109.743 11.5653 109.28 11.4489 108.751 11.4489C108.2 11.4489 107.712 11.5767 107.286 11.8324C106.865 12.0824 106.536 12.4205 106.297 12.8466C106.058 13.267 105.936 13.7358 105.93 14.2528V16.392C105.93 17.0398 106.05 17.5994 106.288 18.071C106.533 18.5426 106.876 18.9062 107.32 19.1619C107.763 19.4176 108.288 19.5455 108.896 19.5455C109.3 19.5455 109.669 19.4886 110.004 19.375C110.339 19.2614 110.626 19.0909 110.865 18.8636C111.104 18.6364 111.286 18.358 111.411 18.0284L114.768 18.25C114.598 19.0568 114.249 19.7614 113.72 20.3636C113.197 20.9602 112.521 21.4261 111.692 21.7614C110.868 22.0909 109.916 22.2557 108.837 22.2557Z"
fill="white" />
</svg>